<svg xmlns="http://www.w3.org/2000/svg" xmlns:xlink="http://www.w3.org/1999/xlink" version="1.1" id="Your_Icon" x="0px" y="0px" width="100px" height="100px" viewBox="0 0 100 100" enable-background="new 0 0 100 100" xml:space="preserve">
<g>
	<g>
		<path fill="#000000" d="M56.357,12.283c0.598-1.173,1.943-1.905,3.254-1.775c0.475,0.027,0.928,0.196,1.352,0.407    c11.889,5.861,23.773,11.727,35.662,17.583c0.416,0.208,0.848,0.399,1.201,0.708c0.838,0.703,1.275,1.837,1.154,2.921    c-0.084,0.945-0.68,1.723-1.043,2.574C89.557,51.693,81.182,68.688,72.799,85.68c-0.551,1.188-1.851,1.977-3.16,1.904    c-0.905-0.002-1.68-0.52-2.471-0.887c-2.27-1.115-4.525-2.254-6.807-3.34c-1.481-0.42-2.984-0.771-4.48-1.143    c-0.316,0.047-0.6,0.236-0.922,0.277c-13.346,2.326-26.693,4.652-40.041,6.977c-0.783,0.111-1.606-0.027-2.28-0.449    c-0.785-0.475-1.353-1.291-1.528-2.191C7.792,67.781,4.472,48.734,1.155,29.687c-0.09-0.488-0.194-0.983-0.14-1.482    c0.107-1.613,1.533-2.949,3.128-3.056c4.799-0.839,9.598-1.672,14.396-2.509c0.188,0.003,0.161-0.227,0.183-0.352    c0.112-1.683,0.237-3.363,0.356-5.044c0.083-1.39,1.14-2.64,2.486-2.979c0.451-0.124,0.923-0.121,1.386-0.079    c4.066,0.292,8.132,0.581,12.198,0.872c0.289,0.019,0.579,0.062,0.868,0.028c0.281-0.986,0.366-2.091,1.055-2.903    c0.806-1,2.216-1.436,3.452-1.101c4.562,1.149,9.124,2.301,13.687,3.442c0.317,0.073,0.626,0.202,0.955,0.206    C55.541,13.904,55.947,13.093,56.357,12.283z M58.754,12.339c-0.348,0.144-0.668,0.385-0.837,0.728    c-0.456,0.869-0.862,1.761-1.308,2.635C48.395,32.368,40.174,49.03,31.96,65.697c-0.364,0.793,0.064,1.797,0.865,2.119    c11.933,5.887,23.866,11.77,35.8,17.654c0.359,0.168,0.717,0.393,1.129,0.381c0.656,0.021,1.268-0.418,1.515-1.016    c8.538-17.291,17.06-34.592,25.591-51.886c0.178-0.368,0.412-0.738,0.396-1.162c0.023-0.638-0.377-1.255-0.963-1.508    c-12.055-5.946-24.111-11.889-36.167-17.834C59.71,12.218,59.198,12.152,58.754,12.339z M38.583,13.129    c-0.491,0.408-0.545,1.077-0.707,1.651c-4.629,18.407-9.275,36.81-13.909,55.216c-0.136,0.521-0.326,1.084-0.12,1.615    c0.197,0.566,0.729,0.961,1.312,1.062c9.262,2.34,18.53,4.656,27.79,7.01c-7.028-3.498-14.084-6.943-21.119-10.43    c-1.134-0.6-1.826-1.908-1.714-3.184c0.029-0.797,0.468-1.486,0.805-2.182c7.683-15.588,15.372-31.171,23.053-46.759    c0.123-0.255,0.281-0.499,0.34-0.781c-4.716-1.185-9.431-2.377-14.147-3.565C39.625,12.642,38.994,12.719,38.583,13.129z     M20.819,17.347c-0.145,1.682-0.243,3.366-0.369,5.048c-1.27,17.711-2.525,35.424-3.794,53.14    c-0.092,0.602,0.117,1.262,0.628,1.621c0.477,0.393,1.131,0.338,1.71,0.385c7.298,0.525,14.597,1.041,21.895,1.568    c1.239,0.061,2.473,0.217,3.714,0.236c-6.685-1.668-13.369-3.365-20.054-5.045c-1.424-0.328-2.517-1.695-2.523-3.156    c-0.037-0.654,0.217-1.271,0.352-1.9c4.394-17.475,8.824-34.941,13.193-52.42c-4.318-0.294-8.634-0.618-12.952-0.918    C21.752,15.776,20.88,16.475,20.819,17.347z M4.167,26.905c-0.632,0.086-1.2,0.558-1.368,1.177    c-0.125,0.387-0.025,0.787,0.044,1.174c3.325,19.075,6.643,38.152,9.973,57.224c0.156,0.85,1.062,1.449,1.906,1.258    c9.778-1.701,19.554-3.406,29.332-5.109c2.067-0.334,4.121-0.762,6.194-1.051c-0.226-0.17-0.522-0.102-0.784-0.133    C39.351,80.732,29.238,80,19.124,79.287c-0.725-0.082-1.485-0.033-2.166-0.334c-1.252-0.504-2.111-1.836-2.046-3.184    c1.206-17.119,2.463-34.233,3.647-51.353C13.756,25.21,8.967,26.089,4.167,26.905z"/>
	</g>
	<path fill="#000000" d="M43.142,17.685c0.692-0.778,1.91-0.933,2.812-0.438c0.865,0.458,1.375,1.555,1.064,2.501   c-0.114,0.461-0.452,0.809-0.748,1.161c0.809-0.287,1.789,0.019,2.296,0.711c0.673,0.938,0.462,2.367-0.407,3.112   c-0.542,0.49-1.345,0.648-2.04,0.436c-1.086-0.289-1.855-1.313-2.024-2.397c-0.333,1.027-0.283,2.266,0.403,3.147   c0.437,0.617,1.145,0.936,1.8,1.266c0.006,0.073,0.017,0.221,0.022,0.295c-2.23-0.54-4.455-1.111-6.679-1.676   c0-0.165,0.075-0.248,0.226-0.25c0.751,0.015,1.551,0.05,2.227-0.34c0.939-0.474,1.46-1.467,1.721-2.446   c-0.454,0.425-0.946,0.836-1.552,1.023c-0.929,0.307-2.069,0.052-2.67-0.75c-0.818-1.061-0.451-2.801,0.734-3.431   c0.793-0.444,1.85-0.227,2.465,0.421C42.52,19.255,42.554,18.31,43.142,17.685z"/>
	<path fill="#000000" d="M62.545,18.035c0.287-0.214,0.499-0.514,0.803-0.708c-0.109,0.725-0.163,1.479,0.046,2.191   c0.269,1.15,0.864,2.199,1.081,3.363c0.152,0.888-0.26,1.94-1.152,2.26c-0.762,0.329-1.695-0.007-2.145-0.686   c-0.28-0.402-0.424-0.879-0.486-1.362c-0.518,0.843-0.65,1.968-0.237,2.887c0.253,0.664,0.827,1.121,1.359,1.558   c0.162,0.078,0.187,0.252,0.162,0.415c-0.437-0.136-0.83-0.376-1.243-0.565c-1.654-0.842-3.344-1.618-4.984-2.483   c0.062-0.133,0.189-0.244,0.342-0.17c0.666,0.159,1.367,0.362,2.049,0.168c1.023-0.212,1.799-1.025,2.254-1.931   c-0.654,0.264-1.376,0.566-2.084,0.313c-0.717-0.203-1.24-0.908-1.232-1.651c-0.016-0.83,0.568-1.573,1.305-1.906   C59.738,19.095,61.338,18.987,62.545,18.035z"/>
	<path fill="#000000" d="M23.505,23.537c1.366-1.363,2.579-2.868,3.736-4.407c0.027,0.034,0.081,0.102,0.108,0.135   c0.941,1.784,2.021,3.5,3.244,5.104c-1.459,1.484-2.829,3.062-4.044,4.757c-0.069-0.098-0.133-0.199-0.192-0.301   c-0.897-1.737-1.971-3.378-3.144-4.938C23.285,23.75,23.397,23.643,23.505,23.537z"/>
	<path fill="#000000" d="M11.278,28.909c0.703-0.672,1.886-0.775,2.674-0.191c0.676,0.439,0.942,1.292,0.865,2.065   c-0.124,1.402-0.923,2.607-1.545,3.831c-0.644,1.279-1.31,2.608-1.402,4.062c-0.359-0.572-0.659-1.185-1.113-1.691   c-1.056-1.197-2.26-2.249-3.409-3.352c-0.594-0.598-1.138-1.32-1.229-2.185c-0.132-0.927,0.457-1.907,1.356-2.191   c0.856-0.301,1.864-0.02,2.441,0.68c0.236,0.199,0.303,0.561,0.575,0.708C10.552,30.001,10.782,29.345,11.278,28.909z"/>
	<path fill="#000000" d="M68.565,40.071c0.859-0.625,1.606-1.386,2.306-2.184c-0.424,1.968-0.479,4.044,0.086,5.991   c0.655,2.599,1.939,4.993,2.541,7.608c0.338,1.439,0.186,3.026-0.596,4.303c-0.553,0.959-1.488,1.68-2.552,1.981   c-1.392,0.44-2.96,0.06-4.077-0.854c-1.229-1.026-1.851-2.604-2.088-4.151c-0.037-0.146-0.018-0.329-0.139-0.44   c-0.605,1.578-1.203,3.227-1.096,4.945c0.082,1.357,0.549,2.684,1.305,3.812c0.846,1.143,1.987,2.012,3.086,2.895   c0.126,0.225-0.057,0.502-0.074,0.744c-5.158-2.504-10.287-5.076-15.441-7.59c0.062-0.232,0.232-0.483,0.459-0.571   c1.82,0.453,3.748,1.001,5.617,0.478c1.733-0.406,3.254-1.489,4.307-2.912c0.5-0.646,0.945-1.336,1.331-2.057   c-0.476,0.184-0.907,0.464-1.384,0.645c-1.082,0.425-2.278,0.664-3.432,0.436c-1.326-0.262-2.549-1.123-3.138-2.353   c-0.579-1.149-0.625-2.553-0.104-3.732c0.544-1.315,1.641-2.36,2.93-2.941c2.253-1.073,4.74-1.484,7.046-2.413   C66.557,41.296,67.629,40.785,68.565,40.071z"/>
	<path fill="#000000" d="M67.143,70.129c2.079,0.973,4.137,2.002,6.186,3.041c-0.023,0.049-0.072,0.146-0.096,0.195   c-0.705-0.068-1.403-0.383-2.121-0.215c-1.072,0.168-1.945,0.984-2.385,1.947c0.484-0.158,0.955-0.412,1.479-0.391   c0.793-0.016,1.575,0.541,1.753,1.328c0.249,0.875-0.301,1.809-1.066,2.225c-1.07,0.572-2.304,0.713-3.397,1.225   c-0.698,0.291-1.274,0.805-1.782,1.346c0.078-0.52,0.191-1.045,0.109-1.568c-0.121-1.246-0.748-2.355-1.088-3.543   c-0.138-0.412-0.151-0.854-0.111-1.281c0.1-0.689,0.582-1.344,1.271-1.533c0.716-0.256,1.551,0.074,1.985,0.678   c0.308,0.398,0.439,0.896,0.533,1.383l0.08-0.037c0.369-0.875,0.566-1.898,0.158-2.799c-0.252-0.67-0.812-1.145-1.361-1.568   C67.117,70.475,67.072,70.299,67.143,70.129z"/>
</g>
</svg>